2.2Hzhigh3min_grf.mot
version=1
nRows=15
nColumns 19
inDegrees=yes
endheader
time	1_ground_force_vx	1_ground_force_vy	1_ground_force_vz	1_ground_force_px	1_ground_force_py	1_ground_force_pz	1_ground_torque_x	1_ground_torque_y	1_ground_torque_z	2_ground_force_vx	2_ground_force_vy	2_ground_force_vz	2_ground_force_px	2_ground_force_py	2_ground_force_pz	2_ground_torque_x	2_ground_torque_y	2_ground_torque_z
            1.253500	          -17.916996	          439.108667	          -36.592771	           -0.277986	            0.006254	           -0.414348	           -0.018361	            0.450000	           -0.037500	          -30.542373	          471.700393	           48.671348	           -0.256254	            0.005618	           -0.714291	           -0.058837	            0.908690	            0.093761
            1.254000	          -18.927867	          446.861439	          -36.923878	           -0.278033	            0.006251	           -0.413757	           -0.017016	            0.401719	           -0.033194	          -30.851160	          479.431812	           49.215273	           -0.256414	            0.005619	           -0.714764	           -0.057850	            0.899001	            0.092285
            1.254500	          -19.251934	          452.993948	          -37.722207	           -0.278398	            0.006252	           -0.414118	           -0.011683	            0.274895	           -0.022891	          -30.961688	          484.215633	           50.264815	           -0.256637	            0.005618	           -0.714771	           -0.055293	            0.864739	            0.089766
            1.255000	          -18.522414	          460.389535	          -38.747026	           -0.278171	            0.006252	           -0.414069	           -0.012866	            0.319806	           -0.026915	          -31.220742	          491.208756	           51.322301	           -0.256392	            0.005620	           -0.715078	           -0.050525	            0.794925	            0.083055
            1.255500	          -18.801569	          467.244493	          -39.863365	           -0.278336	            0.006252	           -0.414054	           -0.014577	            0.362260	           -0.030907	          -31.476970	          497.463917	           52.752583	           -0.256877	            0.005618	           -0.715114	           -0.059037	            0.933022	            0.098940
            1.256000	          -18.989412	          474.280293	          -41.116730	           -0.278432	            0.006252	           -0.413928	           -0.024052	            0.600722	           -0.052078	          -31.919334	          503.350622	           54.040847	           -0.257311	            0.005617	           -0.715163	           -0.061821	            0.974881	            0.104665
            1.256500	          -20.229986	          480.952667	          -41.727041	           -0.278720	            0.006251	           -0.413820	           -0.029327	            0.697217	           -0.060490	          -31.940087	          509.239184	           55.235076	           -0.257628	            0.005616	           -0.715064	           -0.064947	            1.035486	            0.112315
            1.257000	          -21.607568	          488.525132	          -42.058011	           -0.278814	            0.006252	           -0.413919	           -0.026083	            0.589712	           -0.050769	          -32.573917	          516.230787	           56.339650	           -0.257437	            0.005617	           -0.715366	           -0.067046	            1.062546	            0.115963
            1.257500	          -22.527323	          496.278904	          -42.618628	           -0.278771	            0.006251	           -0.413710	           -0.021923	            0.482971	           -0.041476	          -32.267634	          522.306622	           56.971258	           -0.257609	            0.005617	           -0.715478	           -0.064422	            1.042776	            0.113742
            1.258000	          -23.034600	          502.771517	          -43.323245	           -0.279125	            0.006251	           -0.413833	           -0.012965	            0.282985	           -0.024385	          -32.293082	          529.484564	           58.076230	           -0.257692	            0.005618	           -0.715695	           -0.062976	            1.032564	            0.113256
            1.258500	          -22.397563	          510.168462	          -44.668824	           -0.279101	            0.006251	           -0.413783	           -0.014384	            0.327642	           -0.028687	          -31.754357	          536.112343	           59.132063	           -0.257882	            0.005617	           -0.715684	           -0.064566	            1.090081	            0.120234
            1.259000	          -21.714669	          518.105986	          -45.966338	           -0.279071	            0.006251	           -0.413722	           -0.022015	            0.525274	           -0.046602	          -31.356015	          542.738154	           60.563381	           -0.258142	            0.005617	           -0.715918	           -0.067118	            1.161745	            0.129637
            1.259500	          -21.581577	          524.961552	          -47.221272	           -0.279165	            0.006251	           -0.413777	           -0.033028	            0.803401	           -0.072267	          -31.008513	          550.468639	           61.998661	           -0.258514	            0.005617	           -0.716313	           -0.069646	            1.236363	            0.139250
            1.260000	          -22.227055	          533.257446	          -48.055389	           -0.279024	            0.006249	           -0.413353	           -0.035617	            0.854505	           -0.077005	          -30.420117	          556.358564	           63.427271	           -0.258789	            0.005615	           -0.716171	           -0.069755	            1.275755	            0.145442
            1.260500	          -22.917010	          540.289413	          -48.436236	           -0.279287	            0.006250	           -0.413479	           -0.036004	            0.848836	           -0.076097	          -30.021255	          562.801466	           64.529435	           -0.259056	            0.005615	           -0.716346	           -0.068275	            1.279941	            0.146755
